<?xml version="1.0" encoding="UTF-8" standalone="no"?>
<!DOCTYPE svg PUBLIC "-//W3C//DTD SVG 20010904//EN"
              "http://www.w3.org/TR/2001/REC-SVG-20010904/DTD/svg10.dtd">

<svg xmlns="http://www.w3.org/2000/svg"
     width="10.2222in" height="10.2222in"
     viewBox="0 0 736 736">
  <path id="forearm"
        fill="none" stroke="black" stroke-width="1"
        d="M 411.00,250.00
           C 411.00,250.00 446.00,256.00 446.00,256.00
             446.00,256.00 445.00,270.00 445.00,270.00
             445.00,270.00 426.00,308.00 426.00,308.00
             426.00,308.00 416.00,335.00 416.00,335.00
             416.00,335.00 395.00,335.00 395.00,335.00
             395.00,335.00 407.00,257.00 407.00,257.00M 591.00,257.00
           C 591.00,257.00 623.00,242.00 623.00,242.00
             623.00,242.00 628.00,281.00 628.00,281.00
             628.00,281.00 631.00,326.00 631.00,326.00
             631.00,326.00 627.00,336.00 627.00,336.00
             627.00,336.00 610.00,338.00 610.00,338.00
             610.00,338.00 599.00,298.00 599.00,298.00
             599.00,298.00 590.00,264.00 590.00,264.00M 263.00,260.00
           C 263.00,260.00 300.00,257.00 300.00,257.00
             300.00,257.00 303.00,275.00 303.00,275.00
             303.00,275.00 313.00,331.00 313.00,331.00
             313.00,331.00 292.00,337.00 292.00,337.00
             292.00,337.00 270.00,290.00 270.00,290.00
             270.00,290.00 263.00,266.00 263.00,266.00M 81.00,280.00
           C 81.00,280.00 84.00,257.00 84.00,257.00
             84.00,257.00 85.00,250.00 85.00,250.00
             85.00,250.00 87.00,240.00 87.00,240.00
             87.00,240.00 121.00,248.00 121.00,248.00
             121.00,248.00 121.00,267.00 121.00,267.00
             121.00,267.00 118.00,290.00 118.00,290.00
             118.00,290.00 105.00,314.00 105.00,314.00
             105.00,314.00 99.00,334.00 99.00,334.00
             99.00,334.00 80.00,334.00 80.00,334.00
             80.00,334.00 81.00,286.00 81.00,286.00" />
  <path id="shoulder"
        fill="none" stroke="black" stroke-width="1"
        d="M 569.00,128.00
           C 569.00,128.00 587.00,140.00 587.00,140.00
             587.00,140.00 591.00,145.00 591.00,145.00
             591.00,145.00 614.00,146.00 614.00,146.00
             614.00,146.00 603.00,124.00 603.00,124.00
             603.00,124.00 589.00,118.00 589.00,118.00
             589.00,118.00 578.00,122.00 578.00,122.00M 436.00,153.00
           C 436.00,153.00 424.00,149.00 424.00,149.00
             424.00,149.00 443.00,127.00 443.00,127.00
             443.00,127.00 473.00,133.00 473.00,133.00
             473.00,133.00 447.00,149.00 447.00,149.00M 244.00,115.00
           C 244.00,115.00 253.00,150.00 253.00,150.00
             253.00,150.00 255.00,161.00 255.00,161.00
             255.00,161.00 285.00,167.00 285.00,167.00
             285.00,167.00 280.00,146.00 280.00,146.00
             280.00,146.00 271.00,129.00 271.00,129.00
             271.00,129.00 246.00,117.00 246.00,117.00M 114.00,162.00
           C 114.00,162.00 96.00,171.00 96.00,171.00
             96.00,171.00 92.00,147.00 92.00,147.00
             92.00,147.00 103.00,128.00 103.00,128.00
             103.00,128.00 118.00,120.00 118.00,120.00
             118.00,120.00 128.00,120.00 128.00,120.00
             128.00,120.00 144.00,127.00 144.00,127.00
             144.00,127.00 159.00,132.00 159.00,132.00
             159.00,132.00 126.00,140.00 126.00,140.00
             126.00,140.00 119.00,148.00 119.00,148.00" />
  <path id="trapezius"
        fill="none" stroke="black" stroke-width="1"
        d="M 453.00,124.00
           C 453.00,124.00 477.00,132.00 477.00,132.00
             477.00,132.00 562.00,132.00 562.00,132.00
             562.00,132.00 586.00,119.00 586.00,119.00
             586.00,119.00 550.00,107.00 550.00,107.00
             550.00,107.00 533.00,89.00 533.00,89.00
             533.00,89.00 501.00,92.00 501.00,92.00
             501.00,92.00 490.00,104.00 490.00,104.00
             490.00,104.00 472.00,114.00 472.00,114.00
             472.00,114.00 457.00,118.00 457.00,118.00" />
  <path id="calf"
        fill="none" stroke="black" stroke-width="1"
        d="M 201.00,531.00
           C 201.00,531.00 201.00,513.00 201.00,513.00
             201.00,513.00 240.00,513.00 240.00,513.00
             240.00,513.00 242.00,555.00 242.00,555.00
             242.00,555.00 241.00,598.00 241.00,598.00
             241.00,598.00 221.00,664.00 221.00,664.00
             221.00,664.00 199.00,655.00 199.00,655.00
             199.00,655.00 198.00,594.00 198.00,594.00
             198.00,594.00 201.00,541.00 201.00,541.00M 136.00,521.00
           C 136.00,521.00 175.00,515.00 175.00,515.00
             175.00,515.00 175.00,567.00 175.00,567.00
             175.00,567.00 168.00,609.00 168.00,609.00
             168.00,609.00 164.00,655.00 164.00,655.00
             164.00,655.00 141.00,661.00 141.00,661.00
             141.00,661.00 134.00,607.00 134.00,607.00
             134.00,607.00 128.00,578.00 128.00,578.00
             128.00,578.00 134.00,531.00 134.00,531.00M 535.00,526.00
           C 535.00,526.00 573.00,524.00 573.00,524.00
             573.00,524.00 580.00,566.00 580.00,566.00
             580.00,566.00 579.00,602.00 579.00,602.00
             579.00,602.00 570.00,639.00 570.00,639.00
             570.00,639.00 569.00,687.00 569.00,687.00
             569.00,687.00 541.00,686.00 541.00,686.00
             541.00,686.00 543.00,660.00 543.00,660.00
             543.00,660.00 543.00,626.00 543.00,626.00
             543.00,626.00 534.00,591.00 534.00,591.00
             534.00,591.00 534.00,535.00 534.00,535.00M 465.00,573.00
           C 465.00,573.00 469.00,525.00 469.00,525.00
             469.00,525.00 468.00,513.00 468.00,513.00
             468.00,513.00 506.00,524.00 506.00,524.00
             506.00,524.00 510.00,563.00 510.00,563.00
             510.00,563.00 510.00,592.00 510.00,592.00
             510.00,592.00 506.00,637.00 506.00,637.00
             506.00,637.00 508.00,663.00 508.00,663.00
             508.00,663.00 512.00,679.00 512.00,679.00
             512.00,679.00 489.00,681.00 489.00,681.00
             489.00,681.00 486.00,650.00 486.00,650.00
             486.00,650.00 475.00,614.00 475.00,614.00
             475.00,614.00 465.00,584.00 465.00,584.00" />
  <path id="quadriceps"
        fill="none" stroke="black" stroke-width="1"
        d="M 198.00,375.00
           C 198.00,375.00 225.00,320.00 225.00,320.00
             225.00,320.00 244.00,299.00 244.00,299.00
             244.00,299.00 259.00,369.00 259.00,369.00
             259.00,369.00 256.00,413.00 256.00,413.00
             256.00,413.00 250.00,460.00 250.00,460.00
             250.00,460.00 238.00,511.00 238.00,511.00
             238.00,511.00 202.00,511.00 202.00,511.00
             202.00,511.00 198.00,469.00 198.00,469.00
             198.00,469.00 193.00,409.00 193.00,409.00
             193.00,409.00 195.00,384.00 195.00,384.00M 120.00,398.00
           C 120.00,398.00 135.00,316.00 135.00,316.00
             135.00,316.00 161.00,343.00 161.00,343.00
             161.00,343.00 185.00,375.00 185.00,375.00
             185.00,375.00 187.00,406.00 187.00,406.00
             187.00,406.00 179.00,478.00 179.00,478.00
             179.00,478.00 178.00,511.00 178.00,511.00
             178.00,511.00 136.00,519.00 136.00,519.00
             136.00,519.00 132.00,484.00 132.00,484.00
             132.00,484.00 120.00,408.00 120.00,408.00" />
  <path id="hamstring"
        fill="none" stroke="black" stroke-width="1"
        d="M 520.00,398.00
           C 520.00,398.00 522.00,391.00 522.00,391.00
             522.00,391.00 586.00,395.00 586.00,395.00
             586.00,395.00 585.00,438.00 585.00,438.00
             585.00,438.00 575.00,489.00 575.00,489.00
             575.00,489.00 573.00,519.00 573.00,519.00
             573.00,519.00 532.00,521.00 532.00,521.00
             532.00,521.00 530.00,484.00 530.00,484.00
             530.00,484.00 523.00,419.00 523.00,419.00M 451.00,387.00
           C 451.00,387.00 513.00,392.00 513.00,391.00
             513.00,390.00 514.00,441.00 514.00,441.00
             514.00,441.00 511.00,471.00 511.00,471.00
             511.00,471.00 505.00,517.00 505.00,517.00
             505.00,517.00 469.00,509.00 469.00,509.00
             469.00,509.00 461.00,461.00 461.00,461.00
             461.00,461.00 451.00,418.00 451.00,418.00
             451.00,418.00 451.00,393.00 451.00,393.00" />
  <path id="butt"
        fill="none" stroke="black" stroke-width="1"
        d="M 464.00,299.00
           C 464.00,299.00 574.00,304.00 574.00,304.00
             574.00,304.00 587.00,379.00 587.00,379.00
             587.00,379.00 587.00,391.00 587.00,391.00
             587.00,391.00 523.00,390.00 523.00,390.00
             523.00,390.00 512.00,372.00 512.00,372.00
             512.00,372.00 512.00,388.00 512.00,388.00
             512.00,388.00 452.00,386.00 452.00,386.00
             452.00,386.00 463.00,306.00 463.00,306.00" />
  <path id="triceps"
        fill="none" stroke="black" stroke-width="1"
        d="M 588.00,153.00
           C 588.00,153.00 617.00,152.00 617.00,152.00
             617.00,152.00 616.00,183.00 616.00,183.00
             616.00,183.00 623.00,218.00 623.00,218.00
             623.00,218.00 624.00,240.00 624.00,240.00
             624.00,240.00 589.00,256.00 589.00,256.00
             589.00,256.00 585.00,214.00 585.00,214.00
             585.00,214.00 588.00,161.00 588.00,161.00M 423.00,157.00
           C 423.00,157.00 453.00,162.00 453.00,162.00
             453.00,162.00 453.00,195.00 453.00,195.00
             453.00,195.00 451.00,224.00 451.00,224.00
             451.00,224.00 447.00,244.00 447.00,244.00
             447.00,244.00 430.00,255.00 430.00,255.00
             430.00,255.00 414.00,247.00 414.00,247.00
             414.00,247.00 423.00,163.00 423.00,163.00" />
  <path id="back"
        fill="none" stroke="black" stroke-width="1"
        d="M 456.00,151.00
           C 456.00,151.00 450.00,144.00 450.00,144.00
             450.00,144.00 489.00,133.00 489.00,133.00
             489.00,133.00 559.00,131.00 559.00,131.00
             559.00,131.00 586.00,143.00 586.00,143.00
             586.00,143.00 587.00,192.00 587.00,192.00
             587.00,192.00 579.00,241.00 579.00,241.00
             579.00,241.00 573.00,266.00 573.00,266.00
             573.00,266.00 574.00,300.00 574.00,300.00
             574.00,300.00 466.00,296.00 466.00,296.00
             466.00,296.00 470.00,259.00 470.00,259.00
             470.00,259.00 456.00,218.00 456.00,218.00
             456.00,218.00 459.00,178.00 459.00,178.00
             459.00,178.00 457.00,169.00 457.00,169.00" />
  <path id="biceps"
        fill="none" stroke="black" stroke-width="1"
        d="M 113.00,242.00
           C 113.00,242.00 107.00,242.00 107.00,242.00
             107.00,242.00 97.00,240.00 97.00,240.00
             97.00,240.00 86.00,236.00 86.00,236.00
             86.00,236.00 94.00,171.00 94.00,171.00
             94.00,171.00 113.00,163.00 113.00,163.00
             113.00,163.00 122.00,182.00 122.00,182.00
             122.00,182.00 123.00,207.00 123.00,207.00
             123.00,207.00 123.00,218.00 123.00,218.00
             123.00,218.00 122.00,237.00 122.00,237.00
             122.00,237.00 120.00,244.00 120.00,244.00M 252.00,200.00
           C 252.00,200.00 254.00,164.00 254.00,164.00
             254.00,164.00 287.00,170.00 287.00,170.00
             287.00,170.00 290.00,201.00 290.00,201.00
             290.00,201.00 295.00,229.00 295.00,229.00
             295.00,229.00 299.00,252.00 299.00,252.00
             299.00,252.00 264.00,259.00 264.00,259.00
             264.00,259.00 257.00,223.00 257.00,223.00
             257.00,223.00 251.00,206.00 251.00,206.00" />
  <path id="abs"
        fill="none" stroke="black" stroke-width="1"
        d="M 128.00,206.00
           C 128.00,206.00 154.00,208.00 154.00,208.00
             154.00,208.00 182.00,208.00 182.00,208.00
             182.00,208.00 214.00,204.00 214.00,204.00
             214.00,204.00 235.00,209.00 235.00,209.00
             235.00,209.00 248.00,215.00 248.00,215.00
             248.00,215.00 241.00,248.00 241.00,248.00
             241.00,248.00 241.00,268.00 241.00,268.00
             241.00,268.00 241.00,287.00 241.00,287.00
             241.00,287.00 244.00,298.00 244.00,298.00
             244.00,298.00 228.00,316.00 228.00,316.00
             228.00,316.00 151.00,321.00 151.00,321.00
             151.00,321.00 131.00,308.00 131.00,308.00
             131.00,308.00 134.00,255.00 134.00,255.00
             134.00,255.00 126.00,213.00 126.00,213.00" />
  <path id="chest"
        fill="none" stroke="black" stroke-width="1"
        d="M 135.00,139.04
           C 135.00,139.04 146.00,137.32 146.00,137.32
             149.80,136.17 155.15,132.66 159.00,132.79
             163.48,132.94 168.18,136.68 172.00,136.53
             176.56,136.35 180.95,132.23 185.00,131.89
             185.00,131.89 192.00,132.51 192.00,132.51
             192.00,132.51 207.00,129.92 207.00,129.92
             207.00,129.92 216.00,129.92 216.00,129.92
             216.00,129.92 223.00,129.05 223.00,129.05
             223.00,129.05 240.00,129.05 240.00,129.05
             241.87,133.81 248.00,143.90 252.00,147.00
             248.82,156.81 250.11,158.04 250.00,168.00
             249.90,176.43 248.61,178.55 245.43,186.00
             241.29,195.68 239.28,195.93 243.00,201.00
             243.00,201.00 226.00,204.87 226.00,204.87
             226.00,204.87 207.00,204.04 207.00,204.04
             207.00,204.04 184.00,207.61 184.00,207.61
             179.80,207.66 177.15,205.53 173.00,205.13
             166.27,204.48 163.85,208.04 159.00,208.70
             162.17,208.27 142.47,209.01 146.00,209.28
             146.00,209.28 138.00,207.19 138.00,207.19
             134.76,206.76 128.90,207.72 126.60,205.40
             124.10,202.89 125.77,198.19 125.84,195.00
             125.84,195.00 125.32,187.00 125.32,187.00
             125.32,187.00 119.53,166.00 119.53,166.00
             119.53,166.00 116.02,160.01 116.02,160.01
             116.02,160.01 114.00,153.00 114.00,153.00
             119.20,146.08 126.50,141.17 135.00,139.04 Z" />
</svg>
