<?xml version="1.0" encoding="UTF-8" standalone="no"?>
<!DOCTYPE svg PUBLIC "-//W3C//DTD SVG 20010904//EN"
              "http://www.w3.org/TR/2001/REC-SVG-20010904/DTD/svg10.dtd">

<svg version="1.1" xmlns="http://www.w3.org/2000/svg"
     viewBox="0 0 736 736">
  <path id="shoulder_back_right"
        fill="none" stroke="black" stroke-width="1"
        d="M 593.00,118.56
           C 596.53,120.01 600.27,124.27 603.00,127.00
             605.76,129.76 612.38,135.92 613.99,139.00
             616.28,143.37 616.00,152.04 616.00,157.00
             616.00,157.00 594.00,155.28 594.00,155.28
             594.00,155.28 585.39,153.98 585.39,153.98
             585.39,153.98 578.25,142.00 578.25,142.00
             578.25,142.00 564.00,114.00 564.00,114.00
             564.00,114.00 593.00,118.56 593.00,118.56 Z" />
  <path id="shoulder_back_left"
        fill="none" stroke="black" stroke-width="1"
        d="M 431.84,133.21
           C 431.84,133.21 442.00,126.78 442.00,126.78
             442.00,126.78 469.00,115.00 469.00,115.00
             469.00,115.00 455.75,143.00 455.75,143.00
             455.75,143.00 449.37,154.01 449.37,154.01
             449.37,154.01 442.00,155.28 442.00,155.28
             442.00,155.28 423.00,157.00 423.00,157.00
             423.00,157.00 431.84,133.21 431.84,133.21 Z" />
  <path id="shoulder_front_right"
        fill="none" stroke="black" stroke-width="1"
        d="M 246.00,122.25
           C 249.14,121.92 252.96,123.28 256.00,124.14
             265.22,126.75 275.22,130.90 279.99,140.00
             281.36,142.62 281.83,147.95 282.27,151.00
             282.27,151.00 285.00,171.00 285.00,171.00
             285.00,171.00 265.00,169.09 265.00,169.09
             261.66,168.84 256.35,169.03 253.53,167.05
             251.18,165.40 247.08,157.80 245.40,155.00
             238.39,143.32 238.39,139.56 226.00,133.00
             226.00,133.00 226.00,131.00 226.00,131.00
             230.61,129.01 242.13,122.65 246.00,122.25 Z" />
  <path id="shoulder_front_left"
        fill="none" stroke="black" stroke-width="1"
        d="M 98.58,136.04
           C 99.95,134.04 102.13,132.33 104.00,130.80
             113.73,122.89 116.01,123.55 128.00,121.87
             131.23,121.42 137.08,119.85 140.00,121.11
             143.50,122.62 147.79,127.91 150.00,131.00
             150.00,131.00 128.00,141.25 128.00,141.25
             128.00,141.25 119.02,147.21 119.02,147.21
             119.02,147.21 117.00,161.04 117.00,161.04
             117.00,161.04 105.00,161.04 105.00,161.04
             105.00,161.04 93.00,162.00 93.00,162.00
             93.68,156.87 96.13,139.61 98.58,136.04 Z" />
  <path id="leg_back_right"
        fill="none" stroke="black" stroke-width="1"
        d="M 543.00,386.17
           C 543.00,386.17 585.04,383.00 585.04,383.00
             585.04,383.00 585.04,399.00 585.04,399.00
             585.04,399.00 586.00,411.00 586.00,411.00
             586.00,411.00 586.00,441.00 586.00,441.00
             585.98,451.47 579.00,479.26 576.35,491.00
             576.35,491.00 573.21,506.00 573.21,506.00
             573.21,506.00 574.91,525.00 574.91,525.00
             574.91,525.00 578.17,564.00 578.17,564.00
             578.17,564.00 580.00,584.00 580.00,584.00
             580.13,595.57 577.85,601.96 575.42,613.00
             575.42,613.00 566.58,654.00 566.58,654.00
             566.58,654.00 563.00,672.00 563.00,672.00
             563.00,672.00 544.00,672.00 544.00,672.00
             544.00,672.00 541.28,647.00 541.28,647.00
             538.33,623.04 533.73,595.82 534.00,572.00
             534.00,572.00 535.00,558.00 535.00,558.00
             535.00,558.00 535.00,531.00 535.00,531.00
             534.97,514.62 528.23,513.69 528.00,494.00
             528.00,494.00 527.00,479.00 527.00,479.00
             527.00,479.00 527.00,465.00 527.00,465.00
             527.00,465.00 523.83,425.00 523.83,425.00
             523.83,425.00 521.00,388.00 521.00,388.00
             521.00,388.00 543.00,386.17 543.00,386.17 Z" />
  <path id="leg_back_left"
        fill="none" stroke="black" stroke-width="1"
        d="M 490.00,383.91
           C 493.45,383.50 503.58,381.86 506.27,383.91
             508.41,385.70 509.09,393.20 509.61,396.00
             509.61,396.00 513.80,418.00 513.80,418.00
             514.43,421.18 515.92,428.03 515.54,431.00
             514.50,438.97 508.73,443.36 509.01,456.00
             509.01,456.00 512.80,503.00 512.80,503.00
             512.01,511.16 502.98,528.75 503.13,536.00
             503.13,536.00 510.00,583.00 510.00,583.00
             510.00,583.00 510.00,600.00 510.00,600.00
             510.00,600.00 509.00,615.00 509.00,615.00
             509.00,615.00 509.00,653.00 509.00,653.00
             509.01,661.59 511.42,669.60 513.00,678.00
             513.00,678.00 497.00,677.00 497.00,677.00
             494.68,676.98 490.40,677.32 488.51,675.98
             486.56,674.59 485.94,671.20 485.37,669.00
             485.37,669.00 481.37,653.00 481.37,653.00
             481.37,653.00 470.13,609.00 470.13,609.00
             467.99,600.46 465.04,591.86 465.00,583.00
             465.00,583.00 465.00,567.00 465.00,567.00
             465.00,567.00 466.00,551.00 466.00,551.00
             466.00,551.00 466.00,508.00 466.00,508.00
             465.99,498.74 463.64,488.29 462.27,479.00
             462.27,479.00 453.58,421.00 453.58,421.00
             453.58,421.00 449.00,387.00 449.00,387.00
             449.00,387.00 490.00,383.91 490.00,383.91 Z" />
  <path id="trapezius"
        fill="none" stroke="black" stroke-width="1"
        d="M 464.58,126.00
           C 466.19,123.14 468.08,118.77 470.39,116.63
             472.25,114.91 479.40,111.07 482.00,109.58
             490.93,104.46 497.45,98.78 508.00,99.01
             508.00,99.01 517.00,99.96 517.00,99.96
             517.00,99.96 532.00,99.96 532.00,99.96
             540.67,100.11 545.40,103.95 553.00,107.75
             555.96,109.24 563.33,113.00 565.61,114.95
             568.26,117.21 570.18,121.85 571.75,125.00
             571.75,125.00 582.00,147.00 582.00,147.00
             582.00,147.00 550.00,147.00 550.00,147.00
             550.00,147.00 533.00,148.00 533.00,148.00
             533.00,148.00 454.00,148.00 454.00,148.00
             455.78,141.76 461.28,131.85 464.58,126.00 Z" />
  <path id="back"
        fill="none" stroke="black" stroke-width="1"
        d="M 532.00,148.00
           C 532.00,148.00 547.00,147.00 547.00,147.00
             547.00,147.00 582.00,147.00 582.00,147.00
             582.00,147.00 582.00,161.00 582.00,161.00
             582.00,161.00 583.00,176.00 583.00,176.00
             583.00,176.00 583.00,207.00 583.00,207.00
             582.97,223.64 572.86,252.18 570.50,270.00
             570.50,270.00 573.00,295.00 573.00,295.00
             573.00,295.00 546.00,295.00 546.00,295.00
             546.00,295.00 530.00,294.00 530.00,294.00
             530.00,294.00 507.00,294.00 507.00,294.00
             507.00,294.00 490.00,293.00 490.00,293.00
             490.00,293.00 462.00,292.00 462.00,292.00
             462.00,292.00 471.50,267.00 471.50,267.00
             471.50,267.00 467.72,252.00 467.72,252.00
             467.72,252.00 456.32,214.00 456.32,214.00
             456.32,214.00 455.00,190.00 455.00,190.00
             455.00,190.00 454.00,175.00 454.00,175.00
             454.00,175.00 453.00,148.00 453.00,148.00
             453.00,148.00 532.00,148.00 532.00,148.00 Z" />
  <path id="butt"
        fill="none" stroke="black" stroke-width="1"
        d="M 527.00,296.00
           C 527.00,296.00 543.00,297.00 543.00,297.00
             543.00,297.00 573.00,297.00 573.00,297.00
             573.00,297.00 581.28,356.00 581.28,356.00
             581.28,356.00 585.00,383.00 585.00,383.00
             585.00,383.00 539.00,388.00 539.00,388.00
             539.00,388.00 522.21,388.94 522.21,388.94
             522.21,388.94 510.00,371.00 510.00,371.00
             510.00,371.00 509.00,384.00 509.00,384.00
             509.00,384.00 493.00,385.00 493.00,385.00
             493.00,385.00 469.00,386.00 469.00,386.00
             469.00,386.00 452.00,387.00 452.00,387.00
             452.00,387.00 453.91,356.00 453.91,356.00
             453.91,356.00 456.46,323.00 456.46,323.00
             456.46,323.00 463.00,296.00 463.00,296.00
             463.00,296.00 527.00,296.00 527.00,296.00 Z" />
  <path id="triceps_right"
        fill="none" stroke="black" stroke-width="1"
        d="M 608.00,157.00
           C 608.00,157.00 615.98,158.60 615.98,158.60
             615.98,158.60 617.17,169.00 617.17,169.00
             617.17,169.00 619.10,190.00 619.10,190.00
             619.10,190.00 619.10,200.00 619.10,200.00
             619.10,200.00 621.29,226.00 621.29,226.00
             621.29,226.00 626.96,257.00 626.96,257.00
             626.96,257.00 626.96,267.00 626.96,267.00
             626.96,267.00 628.00,289.00 628.00,289.00
             628.00,289.00 629.00,306.00 629.00,306.00
             629.00,306.00 630.00,339.00 630.00,339.00
             630.00,339.00 618.00,339.00 618.00,339.00
             610.19,338.85 610.66,336.10 607.58,328.00
             607.58,328.00 595.95,298.00 595.95,298.00
             592.32,287.96 591.19,270.24 589.72,259.00
             589.72,259.00 585.00,217.00 585.00,217.00
             585.00,217.00 585.00,157.00 585.00,157.00
             585.00,157.00 608.00,157.00 608.00,157.00 Z" />
  <path id="triceps_left"
        fill="none" stroke="black" stroke-width="1"
        d="M 439.00,158.04
           C 439.00,158.04 452.00,159.00 452.00,159.00
             452.00,159.00 452.91,175.00 452.91,175.00
             452.91,175.00 454.17,196.00 454.17,196.00
             454.17,196.00 455.91,218.00 455.91,218.00
             455.91,218.00 450.88,242.00 450.88,242.00
             450.88,242.00 445.25,266.00 445.25,266.00
             445.25,266.00 434.00,293.00 434.00,293.00
             434.00,293.00 420.85,324.00 420.85,324.00
             420.85,324.00 414.59,335.21 414.59,335.21
             414.59,335.21 396.00,335.21 396.00,335.21
             396.00,335.21 400.84,291.00 400.84,291.00
             400.84,291.00 405.34,253.00 405.34,253.00
             405.34,253.00 415.39,227.00 415.39,227.00
             415.39,227.00 419.13,199.00 419.13,199.00
             419.13,199.00 424.00,158.04 424.00,158.04
             424.00,158.04 439.00,158.04 439.00,158.04 Z" />
  <path id="leg_front_left"
        fill="none" stroke="black" stroke-width="1"
        d="M 245.80,312.00
           C 245.80,312.00 250.40,336.00 250.40,336.00
             252.66,347.33 259.58,376.20 258.91,386.00
             258.91,386.00 254.08,416.00 254.08,416.00
             254.08,416.00 244.92,472.00 244.92,472.00
             244.92,472.00 240.09,505.00 240.09,505.00
             240.09,505.00 241.91,527.00 241.91,527.00
             241.91,527.00 243.09,551.00 243.09,551.00
             243.09,551.00 244.00,561.00 244.00,561.00
             244.19,577.80 241.78,580.41 237.87,596.00
             237.87,596.00 225.63,644.00 225.63,644.00
             225.63,644.00 221.13,661.00 221.13,661.00
             220.62,663.01 219.96,666.70 218.28,668.01
             216.67,669.26 213.00,669.00 211.00,669.00
             211.00,669.00 199.00,669.00 199.00,669.00
             199.00,669.00 197.00,566.00 197.00,566.00
             197.00,566.00 201.91,522.00 201.91,522.00
             201.91,522.00 196.00,482.00 196.00,482.00
             196.00,482.00 194.00,384.00 194.00,384.00
             194.02,372.23 199.59,366.33 204.75,356.00
             204.75,356.00 226.63,315.00 226.63,315.00
             229.12,311.53 238.44,302.56 242.00,299.00
             244.52,302.82 244.91,307.56 245.80,312.00 Z" />
  <path id="leg_front_right"
        fill="none" stroke="black" stroke-width="1"
        d="M 146.21,330.00
           C 146.21,330.00 174.00,366.00 174.00,366.00
             174.00,366.00 186.27,383.00 186.27,383.00
             186.27,383.00 186.99,391.00 186.99,391.00
             186.99,391.00 186.09,400.00 186.09,400.00
             186.09,400.00 183.17,436.00 183.17,436.00
             183.17,436.00 177.83,505.00 177.83,505.00
             177.83,505.00 173.00,550.00 173.00,550.00
             173.00,550.00 173.00,601.00 173.00,601.00
             173.00,601.00 164.00,669.00 164.00,669.00
             164.00,669.00 154.00,669.96 154.00,669.96
             154.00,669.96 142.00,669.96 142.00,669.96
             142.00,669.96 129.04,586.00 129.04,586.00
             129.04,586.00 130.83,565.00 130.83,565.00
             130.83,565.00 133.17,534.00 133.17,534.00
             133.17,534.00 134.82,514.00 134.82,514.00
             134.82,514.00 132.15,495.00 132.15,495.00
             132.15,495.00 122.87,428.00 122.87,428.00
             122.87,428.00 119.01,395.00 119.01,395.00
             119.01,395.00 124.58,358.00 124.58,358.00
             124.58,358.00 132.00,313.00 132.00,313.00
             132.00,313.00 146.21,330.00 146.21,330.00 Z" />
  <path id="ohoh"
        fill="none" stroke="black" stroke-width="1"
        d="M 223.00,329.00
           C 223.00,329.00 202.72,365.00 202.72,365.00
             200.93,368.15 197.14,376.18 193.82,377.31
             187.76,379.38 182.97,374.39 180.00,370.00
             174.87,362.40 157.56,337.69 155.00,331.00
             155.00,331.00 223.00,329.00 223.00,329.00 Z" />
  <path id="abs"
        fill="none" stroke="black" stroke-width="1"
        d="M 237.63,264.00
           C 237.63,264.00 245.22,297.00 245.22,297.00
             244.93,300.97 239.89,305.04 237.28,308.00
             233.35,312.47 219.71,327.67 215.00,329.40
             213.06,330.12 210.09,330.00 208.00,330.00
             208.00,330.00 190.00,331.00 190.00,331.00
             190.00,331.00 164.00,331.00 164.00,331.00
             152.87,330.98 149.31,325.12 141.00,318.25
             138.42,316.12 133.81,312.97 132.60,309.91
             131.90,308.16 131.00,294.59 131.00,292.00
             131.00,292.00 130.00,274.00 130.00,274.00
             130.00,274.00 129.00,246.00 129.00,246.00
             129.00,246.00 128.00,233.00 128.00,233.00
             127.97,230.09 127.51,221.65 129.02,219.51
             130.50,217.40 134.62,216.55 137.00,215.86
             137.00,215.86 155.00,210.34 155.00,210.34
             160.18,208.69 177.67,202.94 182.00,203.14
             185.36,203.30 198.85,208.27 203.00,209.67
             203.00,209.67 246.00,225.00 246.00,225.00
             246.00,225.00 237.63,264.00 237.63,264.00 Z" />
  <path id="biceps_left"
        fill="none" stroke="black" stroke-width="1"
        d="M 282.00,172.00
           C 282.00,172.00 295.54,228.00 295.54,228.00
             295.54,228.00 303.42,284.00 303.42,284.00
             303.42,284.00 307.42,312.00 307.42,312.00
             307.42,312.00 307.94,323.96 307.94,323.96
             307.94,323.96 294.00,336.00 294.00,336.00
             294.00,336.00 270.75,290.00 270.75,290.00
             270.75,290.00 259.19,266.00 259.19,266.00
             259.19,266.00 259.19,257.00 259.19,257.00
             259.19,257.00 258.00,239.00 258.00,239.00
             258.00,239.00 257.00,222.00 257.00,222.00
             257.00,222.00 256.00,212.00 256.00,212.00
             256.00,212.00 256.00,203.00 256.00,203.00
             256.00,203.00 254.00,168.00 254.00,168.00
             254.00,168.00 282.00,172.00 282.00,172.00 Z" />
  <path id="biceps_right"
        fill="none" stroke="black" stroke-width="1"
        d="M 82.00,295.00
           C 82.00,295.00 82.00,286.00 82.00,286.00
             82.00,286.00 83.00,272.00 83.00,272.00
             83.00,272.00 85.00,246.00 85.00,246.00
             85.00,246.00 85.00,237.00 85.00,237.00
             85.00,237.00 87.83,207.00 87.83,207.00
             87.83,207.00 90.42,175.00 90.42,175.00
             90.42,175.00 92.02,164.60 92.02,164.60
             92.02,164.60 99.00,163.00 99.00,163.00
             99.00,163.00 116.00,162.00 116.00,162.00
             116.00,162.00 126.54,206.00 126.54,206.00
             127.89,213.66 124.44,228.76 123.08,237.00
             123.08,237.00 112.41,301.00 112.41,301.00
             110.55,312.06 109.16,313.17 104.25,323.00
             103.19,325.12 101.01,329.96 99.37,331.40
             96.94,333.53 84.05,332.00 80.00,332.00
             80.00,332.00 82.00,295.00 82.00,295.00 Z" />
  <path id="chest"
        fill="black" stroke="black" stroke-width="1"
        d="M 119.40,166.00
           C 118.65,162.26 115.25,150.25 117.04,147.41
             118.71,144.76 134.22,139.46 138.00,138.05
             144.59,135.59 151.98,131.70 159.00,132.09
             159.00,132.09 166.00,132.91 166.00,132.91
             166.00,132.91 190.00,134.09 190.00,134.09
             190.00,134.09 202.00,135.00 202.00,135.00
             202.00,135.00 219.00,136.00 219.00,136.00
             221.97,136.03 230.55,135.66 232.83,136.60
             235.41,137.66 237.49,140.81 239.12,143.00
             241.90,146.76 251.42,159.38 252.49,163.00
             253.72,167.16 251.88,181.99 251.28,187.00
             251.28,187.00 247.00,228.00 247.00,228.00
             247.00,228.00 201.00,209.20 201.00,209.20
             201.00,209.20 181.00,201.89 181.00,201.89
             181.00,201.89 168.00,205.58 168.00,205.58
             168.00,205.58 130.00,217.00 130.00,217.00
             130.00,217.00 119.40,166.00 119.40,166.00 Z" />
</svg>
